<svg xmlns="http://www.w3.org/2000/svg" viewBox="0 0 200 200" width="200" height="200">
  <rect width="200" height="200" fill="#0a0e27"/>
  <g id="lines">
    <line x1="75.47565895723693" y1="145.54001785280124" x2="85.37208519733181" y2="100.78204537920558" stroke="#6495ED" stroke-width="1.5" opacity="0.6"/>
    <line x1="85.37208519733181" y1="100.78204537920558" x2="116.35453900265586" y2="138.4171085461184" stroke="#6495ED" stroke-width="1.5" opacity="0.6"/>
    <line x1="85.37208519733181" y1="100.78204537920558" x2="173.72967688464087" y2="46.35417793832218" stroke="#6495ED" stroke-width="1.5" opacity="0.6"/>
    <line x1="116.35453900265586" y1="138.4171085461184" x2="173.72967688464087" y2="46.35417793832218" stroke="#6495ED" stroke-width="1.5" opacity="0.6"/>
    <line x1="173.72967688464087" y1="46.35417793832218" x2="47.36611162960088" y2="119.5123065742784" stroke="#6495ED" stroke-width="1.5" opacity="0.6"/>
    <line x1="47.36611162960088" y1="119.5123065742784" x2="35.339156859484575" y2="154.5850537815447" stroke="#6495ED" stroke-width="1.5" opacity="0.6"/>
    <line x1="47.36611162960088" y1="119.5123065742784" x2="149.41828508316206" y2="176.28611205772802" stroke="#6495ED" stroke-width="1.5" opacity="0.6"/>
    <line x1="35.339156859484575" y1="154.5850537815447" x2="149.41828508316206" y2="176.28611205772802" stroke="#6495ED" stroke-width="1.5" opacity="0.6"/>
    <line x1="35.339156859484575" y1="154.5850537815447" x2="42.31933287069516" y2="27.163947200885943" stroke="#6495ED" stroke-width="1.5" opacity="0.6"/>
    <line x1="149.41828508316206" y1="176.28611205772802" x2="42.31933287069516" y2="27.163947200885943" stroke="#6495ED" stroke-width="1.5" opacity="0.6"/>
    <line x1="149.41828508316206" y1="176.28611205772802" x2="134.14976854790683" y2="82.2636541279045" stroke="#6495ED" stroke-width="1.5" opacity="0.6"/>
    <line x1="42.31933287069516" y1="27.163947200885943" x2="134.14976854790683" y2="82.2636541279045" stroke="#6495ED" stroke-width="1.5" opacity="0.6"/>
    <line x1="42.31933287069516" y1="27.163947200885943" x2="69.27866850136706" y2="168.34815936375162" stroke="#6495ED" stroke-width="1.5" opacity="0.6"/>
    <line x1="134.14976854790683" y1="82.2636541279045" x2="69.27866850136706" y2="168.34815936375162" stroke="#6495ED" stroke-width="1.5" opacity="0.6"/>
    <line x1="69.27866850136706" y1="168.34815936375162" x2="162.66020331415422" y2="104.62763177233867" stroke="#6495ED" stroke-width="1.5" opacity="0.6"/>
    <line x1="162.66020331415422" y1="104.62763177233867" x2="41.33938895532516" y2="76.50663995707592" stroke="#6495ED" stroke-width="1.5" opacity="0.6"/>
  </g>
  <g id="stars">
    <circle cx="75.47565895723693" cy="145.54001785280124" r="3.0633867233499315" fill="#FFD700" opacity="0.9"/>
    <circle cx="85.37208519733181" cy="100.78204537920558" r="4.271454509418235" fill="#FFD700" opacity="0.9"/>
    <circle cx="116.35453900265586" cy="138.4171085461184" r="2.60072722861393" fill="#FFD700" opacity="0.9"/>
    <circle cx="173.72967688464087" cy="46.35417793832218" r="3.1875257713721306" fill="#FFD700" opacity="0.9"/>
    <circle cx="47.36611162960088" cy="119.5123065742784" r="2.2108150642094797" fill="#FFD700" opacity="0.9"/>
    <circle cx="35.339156859484575" cy="154.5850537815447" r="3.4389631893762695" fill="#FFD700" opacity="0.9"/>
    <circle cx="149.41828508316206" cy="176.28611205772802" r="2.1808063608332713" fill="#FFD700" opacity="0.9"/>
    <circle cx="42.31933287069516" cy="27.163947200885943" r="3.4807683070323376" fill="#FFD700" opacity="0.9"/>
    <circle cx="134.14976854790683" cy="82.2636541279045" r="3.05197222852597" fill="#FFD700" opacity="0.9"/>
    <circle cx="69.27866850136706" cy="168.34815936375162" r="2.9070433139263487" fill="#FFD700" opacity="0.9"/>
    <circle cx="162.66020331415422" cy="104.62763177233867" r="2.5096044359089533" fill="#FFD700" opacity="0.9"/>
    <circle cx="41.33938895532516" cy="76.50663995707592" r="2.5689559999193907" fill="#FFD700" opacity="0.9"/>
  </g>
  <text x="100" y="190" font-family="Arial, sans-serif" font-size="12" fill="#fff" text-anchor="middle" opacity="0.7">Andromeda</text>
</svg>