<svg xmlns="http://www.w3.org/2000/svg" viewBox="0 0 200 200" width="200" height="200">
  <rect width="200" height="200" fill="#0a0e27"/>
  <g id="lines">
    <line x1="163.90543708996375" y1="79.43396523972957" x2="46.50255977738837" y2="53.545495068963156" stroke="#6495ED" stroke-width="1.5" opacity="0.6"/>
    <line x1="46.50255977738837" y1="53.545495068963156" x2="102.5694163856815" y2="126.41103663266816" stroke="#6495ED" stroke-width="1.5" opacity="0.6"/>
    <line x1="102.5694163856815" y1="126.41103663266816" x2="138.14328345490256" y2="143.37680781447116" stroke="#6495ED" stroke-width="1.5" opacity="0.6"/>
    <line x1="138.14328345490256" y1="143.37680781447116" x2="106.14650708389061" y2="143.26382101649352" stroke="#6495ED" stroke-width="1.5" opacity="0.6"/>
    <line x1="106.14650708389061" y1="143.26382101649352" x2="50.89145053116976" y2="99.6826377683498" stroke="#6495ED" stroke-width="1.5" opacity="0.6"/>
    <line x1="50.89145053116976" y1="99.6826377683498" x2="145.68654102816652" y2="169.0897575229889" stroke="#6495ED" stroke-width="1.5" opacity="0.6"/>
    <line x1="50.89145053116976" y1="99.6826377683498" x2="50.54864144903579" y2="46.970240570640804" stroke="#6495ED" stroke-width="1.5" opacity="0.6"/>
    <line x1="145.68654102816652" y1="169.0897575229889" x2="50.54864144903579" y2="46.970240570640804" stroke="#6495ED" stroke-width="1.5" opacity="0.6"/>
    <line x1="50.54864144903579" y1="46.970240570640804" x2="41.788551269057415" y2="144.66030989471074" stroke="#6495ED" stroke-width="1.5" opacity="0.6"/>
    <line x1="50.54864144903579" y1="46.970240570640804" x2="39.51622994805714" y2="54.64718731984593" stroke="#6495ED" stroke-width="1.5" opacity="0.6"/>
    <line x1="41.788551269057415" y1="144.66030989471074" x2="39.51622994805714" y2="54.64718731984593" stroke="#6495ED" stroke-width="1.5" opacity="0.6"/>
    <line x1="41.788551269057415" y1="144.66030989471074" x2="157.09787643155613" y2="144.7403875112761" stroke="#6495ED" stroke-width="1.5" opacity="0.6"/>
    <line x1="39.51622994805714" y1="54.64718731984593" x2="157.09787643155613" y2="144.7403875112761" stroke="#6495ED" stroke-width="1.5" opacity="0.6"/>
  </g>
  <g id="stars">
    <circle cx="163.90543708996375" cy="79.43396523972957" r="2.21735322615842" fill="#FFD700" opacity="0.9"/>
    <circle cx="46.50255977738837" cy="53.545495068963156" r="4.569572246479268" fill="#FFD700" opacity="0.9"/>
    <circle cx="102.5694163856815" cy="126.41103663266816" r="3.5369038621190905" fill="#FFD700" opacity="0.9"/>
    <circle cx="138.14328345490256" cy="143.37680781447116" r="3.3686022171687338" fill="#FFD700" opacity="0.9"/>
    <circle cx="106.14650708389061" cy="143.26382101649352" r="3.056533964495711" fill="#FFD700" opacity="0.9"/>
    <circle cx="50.89145053116976" cy="99.6826377683498" r="2.6074400513102045" fill="#FFD700" opacity="0.9"/>
    <circle cx="145.68654102816652" cy="169.0897575229889" r="2.7798202258057234" fill="#FFD700" opacity="0.9"/>
    <circle cx="50.54864144903579" cy="46.970240570640804" r="3.702035621242873" fill="#FFD700" opacity="0.9"/>
    <circle cx="41.788551269057415" cy="144.66030989471074" r="3.078638455323321" fill="#FFD700" opacity="0.9"/>
    <circle cx="39.51622994805714" cy="54.64718731984593" r="4.354365066661487" fill="#FFD700" opacity="0.9"/>
    <circle cx="157.09787643155613" cy="144.7403875112761" r="2.354004029626957" fill="#FFD700" opacity="0.9"/>
  </g>
  <text x="100" y="190" font-family="Arial, sans-serif" font-size="12" fill="#fff" text-anchor="middle" opacity="0.7">Aquarius</text>
</svg>