<svg xmlns="http://www.w3.org/2000/svg" viewBox="0 0 200 200" width="200" height="200">
  <rect width="200" height="200" fill="#0a0e27"/>
  <g id="lines">
    <line x1="52.59707120309372" y1="51.75037016531995" x2="27.314602491283893" y2="152.67786218948" stroke="#6495ED" stroke-width="1.5" opacity="0.6"/>
    <line x1="52.59707120309372" y1="51.75037016531995" x2="50.49928772934109" y2="84.91166575941418" stroke="#6495ED" stroke-width="1.5" opacity="0.6"/>
    <line x1="27.314602491283893" y1="152.67786218948" x2="50.49928772934109" y2="84.91166575941418" stroke="#6495ED" stroke-width="1.5" opacity="0.6"/>
    <line x1="27.314602491283893" y1="152.67786218948" x2="116.31107241734202" y2="67.13460629277634" stroke="#6495ED" stroke-width="1.5" opacity="0.6"/>
    <line x1="50.49928772934109" y1="84.91166575941418" x2="116.31107241734202" y2="67.13460629277634" stroke="#6495ED" stroke-width="1.5" opacity="0.6"/>
    <line x1="116.31107241734202" y1="67.13460629277634" x2="131.22480949021838" y2="89.37184208302855" stroke="#6495ED" stroke-width="1.5" opacity="0.6"/>
    <line x1="116.31107241734202" y1="67.13460629277634" x2="161.84685242721557" y2="146.70181080107224" stroke="#6495ED" stroke-width="1.5" opacity="0.6"/>
    <line x1="131.22480949021838" y1="89.37184208302855" x2="161.84685242721557" y2="146.70181080107224" stroke="#6495ED" stroke-width="1.5" opacity="0.6"/>
    <line x1="161.84685242721557" y1="146.70181080107224" x2="101.36534077349872" y2="25.619791740601485" stroke="#6495ED" stroke-width="1.5" opacity="0.6"/>
    <line x1="161.84685242721557" y1="146.70181080107224" x2="161.60474817637902" y2="120.55476527257656" stroke="#6495ED" stroke-width="1.5" opacity="0.6"/>
    <line x1="101.36534077349872" y1="25.619791740601485" x2="161.60474817637902" y2="120.55476527257656" stroke="#6495ED" stroke-width="1.5" opacity="0.6"/>
    <line x1="161.60474817637902" y1="120.55476527257656" x2="76.96006427696489" y2="170.54398546797373" stroke="#6495ED" stroke-width="1.5" opacity="0.6"/>
    <line x1="161.60474817637902" y1="120.55476527257656" x2="96.79447399346948" y2="136.2162273426287" stroke="#6495ED" stroke-width="1.5" opacity="0.6"/>
    <line x1="76.96006427696489" y1="170.54398546797373" x2="96.79447399346948" y2="136.2162273426287" stroke="#6495ED" stroke-width="1.5" opacity="0.6"/>
    <line x1="96.79447399346948" y1="136.2162273426287" x2="157.60708830578406" y2="109.71724902012465" stroke="#6495ED" stroke-width="1.5" opacity="0.6"/>
  </g>
  <g id="stars">
    <circle cx="52.59707120309372" cy="51.75037016531995" r="3.1628854504997834" fill="#FFD700" opacity="0.9"/>
    <circle cx="27.314602491283893" cy="152.67786218948" r="4.753324463584822" fill="#FFD700" opacity="0.9"/>
    <circle cx="50.49928772934109" cy="84.91166575941418" r="2.1156666410920115" fill="#FFD700" opacity="0.9"/>
    <circle cx="116.31107241734202" cy="67.13460629277634" r="4.064557569158556" fill="#FFD700" opacity="0.9"/>
    <circle cx="131.22480949021838" cy="89.37184208302855" r="4.409978773461715" fill="#FFD700" opacity="0.9"/>
    <circle cx="161.84685242721557" cy="146.70181080107224" r="3.186450589610354" fill="#FFD700" opacity="0.9"/>
    <circle cx="101.36534077349872" cy="25.619791740601485" r="4.800795697361326" fill="#FFD700" opacity="0.9"/>
    <circle cx="161.60474817637902" cy="120.55476527257656" r="2.499863771026282" fill="#FFD700" opacity="0.9"/>
    <circle cx="76.96006427696489" cy="170.54398546797373" r="3.7371914085333575" fill="#FFD700" opacity="0.9"/>
    <circle cx="96.79447399346948" cy="136.2162273426287" r="4.709285428902747" fill="#FFD700" opacity="0.9"/>
    <circle cx="157.60708830578406" cy="109.71724902012465" r="3.213488294045432" fill="#FFD700" opacity="0.9"/>
  </g>
  <text x="100" y="190" font-family="Arial, sans-serif" font-size="12" fill="#fff" text-anchor="middle" opacity="0.7">Aries</text>
</svg>