<svg xmlns="http://www.w3.org/2000/svg" viewBox="0 0 200 200" width="200" height="200">
  <rect width="200" height="200" fill="#0a0e27"/>
  <g id="lines">
    <line x1="105.9033905284906" y1="112.7441584527408" x2="154.89553056339196" y2="105.66671069715585" stroke="#6495ED" stroke-width="1.5" opacity="0.6"/>
    <line x1="105.9033905284906" y1="112.7441584527408" x2="50.711584924858215" y2="39.10174406609517" stroke="#6495ED" stroke-width="1.5" opacity="0.6"/>
    <line x1="154.89553056339196" y1="105.66671069715585" x2="50.711584924858215" y2="39.10174406609517" stroke="#6495ED" stroke-width="1.5" opacity="0.6"/>
    <line x1="154.89553056339196" y1="105.66671069715585" x2="140.60721337946845" y2="144.5307279874396" stroke="#6495ED" stroke-width="1.5" opacity="0.6"/>
    <line x1="50.711584924858215" y1="39.10174406609517" x2="140.60721337946845" y2="144.5307279874396" stroke="#6495ED" stroke-width="1.5" opacity="0.6"/>
    <line x1="140.60721337946845" y1="144.5307279874396" x2="69.28792453641708" y2="87.4942982323168" stroke="#6495ED" stroke-width="1.5" opacity="0.6"/>
    <line x1="140.60721337946845" y1="144.5307279874396" x2="65.87406127167387" y2="132.21828726938412" stroke="#6495ED" stroke-width="1.5" opacity="0.6"/>
    <line x1="69.28792453641708" y1="87.4942982323168" x2="65.87406127167387" y2="132.21828726938412" stroke="#6495ED" stroke-width="1.5" opacity="0.6"/>
    <line x1="65.87406127167387" y1="132.21828726938412" x2="22.7226892527489" y2="85.72365866348264" stroke="#6495ED" stroke-width="1.5" opacity="0.6"/>
    <line x1="65.87406127167387" y1="132.21828726938412" x2="136.12797181846418" y2="20.076224529145463" stroke="#6495ED" stroke-width="1.5" opacity="0.6"/>
    <line x1="22.7226892527489" y1="85.72365866348264" x2="136.12797181846418" y2="20.076224529145463" stroke="#6495ED" stroke-width="1.5" opacity="0.6"/>
    <line x1="22.7226892527489" y1="85.72365866348264" x2="172.26012050544819" y2="57.50048368814518" stroke="#6495ED" stroke-width="1.5" opacity="0.6"/>
    <line x1="136.12797181846418" y1="20.076224529145463" x2="172.26012050544819" y2="57.50048368814518" stroke="#6495ED" stroke-width="1.5" opacity="0.6"/>
    <line x1="172.26012050544819" y1="57.50048368814518" x2="44.19969440586147" y2="165.88392535665886" stroke="#6495ED" stroke-width="1.5" opacity="0.6"/>
    <line x1="172.26012050544819" y1="57.50048368814518" x2="58.83867722147848" y2="55.03864145877465" stroke="#6495ED" stroke-width="1.5" opacity="0.6"/>
    <line x1="44.19969440586147" y1="165.88392535665886" x2="58.83867722147848" y2="55.03864145877465" stroke="#6495ED" stroke-width="1.5" opacity="0.6"/>
    <line x1="58.83867722147848" y1="55.03864145877465" x2="43.82876102639628" y2="71.03067764662235" stroke="#6495ED" stroke-width="1.5" opacity="0.6"/>
  </g>
  <g id="stars">
    <circle cx="105.9033905284906" cy="112.7441584527408" r="3.6085892603558207" fill="#FFD700" opacity="0.9"/>
    <circle cx="154.89553056339196" cy="105.66671069715585" r="2.597760473063068" fill="#FFD700" opacity="0.9"/>
    <circle cx="50.711584924858215" cy="39.10174406609517" r="3.9503387425281318" fill="#FFD700" opacity="0.9"/>
    <circle cx="140.60721337946845" cy="144.5307279874396" r="2.6215816253852324" fill="#FFD700" opacity="0.9"/>
    <circle cx="69.28792453641708" cy="87.4942982323168" r="4.546941990682985" fill="#FFD700" opacity="0.9"/>
    <circle cx="65.87406127167387" cy="132.21828726938412" r="4.664261138579466" fill="#FFD700" opacity="0.9"/>
    <circle cx="22.7226892527489" cy="85.72365866348264" r="4.690863442972741" fill="#FFD700" opacity="0.9"/>
    <circle cx="136.12797181846418" cy="20.076224529145463" r="3.7394304914581733" fill="#FFD700" opacity="0.9"/>
    <circle cx="172.26012050544819" cy="57.50048368814518" r="4.7493944685008085" fill="#FFD700" opacity="0.9"/>
    <circle cx="44.19969440586147" cy="165.88392535665886" r="4.751466922132369" fill="#FFD700" opacity="0.9"/>
    <circle cx="58.83867722147848" cy="55.03864145877465" r="2.828626722960327" fill="#FFD700" opacity="0.9"/>
    <circle cx="43.82876102639628" cy="71.03067764662235" r="3.6400245378574203" fill="#FFD700" opacity="0.9"/>
  </g>
  <text x="100" y="190" font-family="Arial, sans-serif" font-size="12" fill="#fff" text-anchor="middle" opacity="0.7">Auriga</text>
</svg>