<svg xmlns="http://www.w3.org/2000/svg" viewBox="0 0 200 200" width="200" height="200">
  <rect width="200" height="200" fill="#0a0e27"/>
  <g id="lines">
    <line x1="160.24509810592278" y1="133.79029755912725" x2="168.91999948024664" y2="113.45655425947129" stroke="#6495ED" stroke-width="1.5" opacity="0.6"/>
    <line x1="160.24509810592278" y1="133.79029755912725" x2="51.56825148679058" y2="135.6081132848813" stroke="#6495ED" stroke-width="1.5" opacity="0.6"/>
    <line x1="168.91999948024664" y1="113.45655425947129" x2="51.56825148679058" y2="135.6081132848813" stroke="#6495ED" stroke-width="1.5" opacity="0.6"/>
    <line x1="51.56825148679058" y1="135.6081132848813" x2="75.78789073825213" y2="46.2510055687482" stroke="#6495ED" stroke-width="1.5" opacity="0.6"/>
    <line x1="51.56825148679058" y1="135.6081132848813" x2="49.11571543226547" y2="146.2979869088196" stroke="#6495ED" stroke-width="1.5" opacity="0.6"/>
    <line x1="75.78789073825213" y1="46.2510055687482" x2="49.11571543226547" y2="146.2979869088196" stroke="#6495ED" stroke-width="1.5" opacity="0.6"/>
    <line x1="49.11571543226547" y1="146.2979869088196" x2="31.518741851423933" y2="76.16396455947549" stroke="#6495ED" stroke-width="1.5" opacity="0.6"/>
    <line x1="49.11571543226547" y1="146.2979869088196" x2="137.7486487370955" y2="57.82436844059081" stroke="#6495ED" stroke-width="1.5" opacity="0.6"/>
    <line x1="31.518741851423933" y1="76.16396455947549" x2="137.7486487370955" y2="57.82436844059081" stroke="#6495ED" stroke-width="1.5" opacity="0.6"/>
    <line x1="137.7486487370955" y1="57.82436844059081" x2="31.25786834314738" y2="64.76276368111189" stroke="#6495ED" stroke-width="1.5" opacity="0.6"/>
    <line x1="137.7486487370955" y1="57.82436844059081" x2="88.81135973927965" y2="128.070524860419" stroke="#6495ED" stroke-width="1.5" opacity="0.6"/>
    <line x1="31.25786834314738" y1="64.76276368111189" x2="88.81135973927965" y2="128.070524860419" stroke="#6495ED" stroke-width="1.5" opacity="0.6"/>
  </g>
  <g id="stars">
    <circle cx="160.24509810592278" cy="133.79029755912725" r="3.5726638365717487" fill="#FFD700" opacity="0.9"/>
    <circle cx="168.91999948024664" cy="113.45655425947129" r="2.517268780453687" fill="#FFD700" opacity="0.9"/>
    <circle cx="51.56825148679058" cy="135.6081132848813" r="4.387761207849418" fill="#FFD700" opacity="0.9"/>
    <circle cx="75.78789073825213" cy="46.2510055687482" r="2.0222149304880137" fill="#FFD700" opacity="0.9"/>
    <circle cx="49.11571543226547" cy="146.2979869088196" r="2.098856541671447" fill="#FFD700" opacity="0.9"/>
    <circle cx="31.518741851423933" cy="76.16396455947549" r="4.242784484496958" fill="#FFD700" opacity="0.9"/>
    <circle cx="137.7486487370955" cy="57.82436844059081" r="3.9875466211007096" fill="#FFD700" opacity="0.9"/>
    <circle cx="31.25786834314738" cy="64.76276368111189" r="2.5389267695761255" fill="#FFD700" opacity="0.9"/>
    <circle cx="88.81135973927965" cy="128.070524860419" r="4.098403136075299" fill="#FFD700" opacity="0.9"/>
  </g>
  <text x="100" y="190" font-family="Arial, sans-serif" font-size="12" fill="#fff" text-anchor="middle" opacity="0.7">Cancer</text>
</svg>