<svg xmlns="http://www.w3.org/2000/svg" viewBox="0 0 200 200" width="200" height="200">
  <rect width="200" height="200" fill="#0a0e27"/>
  <g id="lines">
    <line x1="125.58360048080438" y1="39.06839123073141" x2="59.56156960946874" y2="22.3736098148607" stroke="#6495ED" stroke-width="1.5" opacity="0.6"/>
    <line x1="125.58360048080438" y1="39.06839123073141" x2="64.10037066090716" y2="131.17277512451528" stroke="#6495ED" stroke-width="1.5" opacity="0.6"/>
    <line x1="59.56156960946874" y1="22.3736098148607" x2="64.10037066090716" y2="131.17277512451528" stroke="#6495ED" stroke-width="1.5" opacity="0.6"/>
    <line x1="64.10037066090716" y1="131.17277512451528" x2="80.30625725618353" y2="168.59660978852713" stroke="#6495ED" stroke-width="1.5" opacity="0.6"/>
    <line x1="64.10037066090716" y1="131.17277512451528" x2="29.26595475320461" y2="117.89977208540066" stroke="#6495ED" stroke-width="1.5" opacity="0.6"/>
    <line x1="80.30625725618353" y1="168.59660978852713" x2="29.26595475320461" y2="117.89977208540066" stroke="#6495ED" stroke-width="1.5" opacity="0.6"/>
    <line x1="29.26595475320461" y1="117.89977208540066" x2="47.47049614986928" y2="174.30405231419346" stroke="#6495ED" stroke-width="1.5" opacity="0.6"/>
    <line x1="47.47049614986928" y1="174.30405231419346" x2="29.012321368276375" y2="88.2862027311609" stroke="#6495ED" stroke-width="1.5" opacity="0.6"/>
    <line x1="29.012321368276375" y1="88.2862027311609" x2="23.235967799668877" y2="177.3407648796524" stroke="#6495ED" stroke-width="1.5" opacity="0.6"/>
  </g>
  <g id="stars">
    <circle cx="125.58360048080438" cy="39.06839123073141" r="4.240052593818513" fill="#FFD700" opacity="0.9"/>
    <circle cx="59.56156960946874" cy="22.3736098148607" r="4.322319142525562" fill="#FFD700" opacity="0.9"/>
    <circle cx="64.10037066090716" cy="131.17277512451528" r="3.1580886548478833" fill="#FFD700" opacity="0.9"/>
    <circle cx="80.30625725618353" cy="168.59660978852713" r="2.0048957660415976" fill="#FFD700" opacity="0.9"/>
    <circle cx="29.26595475320461" cy="117.89977208540066" r="3.7031809135560954" fill="#FFD700" opacity="0.9"/>
    <circle cx="47.47049614986928" cy="174.30405231419346" r="4.35874858359687" fill="#FFD700" opacity="0.9"/>
    <circle cx="29.012321368276375" cy="88.2862027311609" r="3.51132424716059" fill="#FFD700" opacity="0.9"/>
    <circle cx="23.235967799668877" cy="177.3407648796524" r="2.716740881646185" fill="#FFD700" opacity="0.9"/>
  </g>
  <text x="100" y="190" font-family="Arial, sans-serif" font-size="12" fill="#fff" text-anchor="middle" opacity="0.7">Canis Minor</text>
</svg>