<svg xmlns="http://www.w3.org/2000/svg" viewBox="0 0 200 200" width="200" height="200">
  <rect width="200" height="200" fill="#0a0e27"/>
  <g id="lines">
    <line x1="29.962879690521582" y1="41.87051759087314" x2="103.85642080739899" y2="110.52128209211088" stroke="#6495ED" stroke-width="1.5" opacity="0.6"/>
    <line x1="29.962879690521582" y1="41.87051759087314" x2="148.4152425483087" y2="167.76112416440674" stroke="#6495ED" stroke-width="1.5" opacity="0.6"/>
    <line x1="103.85642080739899" y1="110.52128209211088" x2="148.4152425483087" y2="167.76112416440674" stroke="#6495ED" stroke-width="1.5" opacity="0.6"/>
    <line x1="103.85642080739899" y1="110.52128209211088" x2="53.10669384821047" y2="157.72268375753882" stroke="#6495ED" stroke-width="1.5" opacity="0.6"/>
    <line x1="148.4152425483087" y1="167.76112416440674" x2="53.10669384821047" y2="157.72268375753882" stroke="#6495ED" stroke-width="1.5" opacity="0.6"/>
    <line x1="148.4152425483087" y1="167.76112416440674" x2="175.76401031951193" y2="119.22192383282344" stroke="#6495ED" stroke-width="1.5" opacity="0.6"/>
    <line x1="53.10669384821047" y1="157.72268375753882" x2="175.76401031951193" y2="119.22192383282344" stroke="#6495ED" stroke-width="1.5" opacity="0.6"/>
    <line x1="53.10669384821047" y1="157.72268375753882" x2="173.41902826556873" y2="153.9767602127887" stroke="#6495ED" stroke-width="1.5" opacity="0.6"/>
    <line x1="175.76401031951193" y1="119.22192383282344" x2="173.41902826556873" y2="153.9767602127887" stroke="#6495ED" stroke-width="1.5" opacity="0.6"/>
    <line x1="173.41902826556873" y1="153.9767602127887" x2="101.63162991901703" y2="162.62072238974298" stroke="#6495ED" stroke-width="1.5" opacity="0.6"/>
    <line x1="173.41902826556873" y1="153.9767602127887" x2="37.68394323992833" y2="92.4125954284386" stroke="#6495ED" stroke-width="1.5" opacity="0.6"/>
    <line x1="101.63162991901703" y1="162.62072238974298" x2="37.68394323992833" y2="92.4125954284386" stroke="#6495ED" stroke-width="1.5" opacity="0.6"/>
    <line x1="101.63162991901703" y1="162.62072238974298" x2="62.29339026121618" y2="75.03788002265644" stroke="#6495ED" stroke-width="1.5" opacity="0.6"/>
    <line x1="37.68394323992833" y1="92.4125954284386" x2="62.29339026121618" y2="75.03788002265644" stroke="#6495ED" stroke-width="1.5" opacity="0.6"/>
    <line x1="62.29339026121618" y1="75.03788002265644" x2="52.54419786244412" y2="154.4108714658106" stroke="#6495ED" stroke-width="1.5" opacity="0.6"/>
    <line x1="52.54419786244412" y1="154.4108714658106" x2="172.8139789369589" y2="109.42504539574358" stroke="#6495ED" stroke-width="1.5" opacity="0.6"/>
  </g>
  <g id="stars">
    <circle cx="29.962879690521582" cy="41.87051759087314" r="2.459243907934992" fill="#FFD700" opacity="0.9"/>
    <circle cx="103.85642080739899" cy="110.52128209211088" r="2.8925176935840797" fill="#FFD700" opacity="0.9"/>
    <circle cx="148.4152425483087" cy="167.76112416440674" r="4.653522526076325" fill="#FFD700" opacity="0.9"/>
    <circle cx="53.10669384821047" cy="157.72268375753882" r="2.0182783284792367" fill="#FFD700" opacity="0.9"/>
    <circle cx="175.76401031951193" cy="119.22192383282344" r="4.708992661198884" fill="#FFD700" opacity="0.9"/>
    <circle cx="173.41902826556873" cy="153.9767602127887" r="2.5955430520113736" fill="#FFD700" opacity="0.9"/>
    <circle cx="101.63162991901703" cy="162.62072238974298" r="2.236092489026772" fill="#FFD700" opacity="0.9"/>
    <circle cx="37.68394323992833" cy="92.4125954284386" r="2.3124807486915957" fill="#FFD700" opacity="0.9"/>
    <circle cx="62.29339026121618" cy="75.03788002265644" r="2.9575776896506665" fill="#FFD700" opacity="0.9"/>
    <circle cx="52.54419786244412" cy="154.4108714658106" r="3.997802002449053" fill="#FFD700" opacity="0.9"/>
    <circle cx="172.8139789369589" cy="109.42504539574358" r="3.757234548783483" fill="#FFD700" opacity="0.9"/>
  </g>
  <text x="100" y="190" font-family="Arial, sans-serif" font-size="12" fill="#fff" text-anchor="middle" opacity="0.7">Canis Major</text>
</svg>