<svg xmlns="http://www.w3.org/2000/svg" viewBox="0 0 200 200" width="200" height="200">
  <rect width="200" height="200" fill="#0a0e27"/>
  <g id="lines">
    <line x1="170.227458523586" y1="35.480165671318" x2="98.9156654725538" y2="135.05924258657757" stroke="#6495ED" stroke-width="1.5" opacity="0.6"/>
    <line x1="170.227458523586" y1="35.480165671318" x2="85.65443147433122" y2="158.60276068221953" stroke="#6495ED" stroke-width="1.5" opacity="0.6"/>
    <line x1="98.9156654725538" y1="135.05924258657757" x2="85.65443147433122" y2="158.60276068221953" stroke="#6495ED" stroke-width="1.5" opacity="0.6"/>
    <line x1="85.65443147433122" y1="158.60276068221953" x2="99.75898838308403" y2="156.03250568292725" stroke="#6495ED" stroke-width="1.5" opacity="0.6"/>
    <line x1="99.75898838308403" y1="156.03250568292725" x2="91.62593310367254" y2="149.36765074230811" stroke="#6495ED" stroke-width="1.5" opacity="0.6"/>
    <line x1="99.75898838308403" y1="156.03250568292725" x2="77.5456330918897" y2="128.87792797439198" stroke="#6495ED" stroke-width="1.5" opacity="0.6"/>
    <line x1="91.62593310367254" y1="149.36765074230811" x2="77.5456330918897" y2="128.87792797439198" stroke="#6495ED" stroke-width="1.5" opacity="0.6"/>
    <line x1="77.5456330918897" y1="128.87792797439198" x2="137.85534447608345" y2="98.6422082192185" stroke="#6495ED" stroke-width="1.5" opacity="0.6"/>
    <line x1="77.5456330918897" y1="128.87792797439198" x2="123.81584195298032" y2="35.47037889506541" stroke="#6495ED" stroke-width="1.5" opacity="0.6"/>
    <line x1="137.85534447608345" y1="98.6422082192185" x2="123.81584195298032" y2="35.47037889506541" stroke="#6495ED" stroke-width="1.5" opacity="0.6"/>
  </g>
  <g id="stars">
    <circle cx="170.227458523586" cy="35.480165671318" r="4.2830620402876" fill="#FFD700" opacity="0.9"/>
    <circle cx="98.9156654725538" cy="135.05924258657757" r="4.620410597535335" fill="#FFD700" opacity="0.9"/>
    <circle cx="85.65443147433122" cy="158.60276068221953" r="4.0454326042934525" fill="#FFD700" opacity="0.9"/>
    <circle cx="99.75898838308403" cy="156.03250568292725" r="2.2290619765705832" fill="#FFD700" opacity="0.9"/>
    <circle cx="91.62593310367254" cy="149.36765074230811" r="4.789957757756409" fill="#FFD700" opacity="0.9"/>
    <circle cx="77.5456330918897" cy="128.87792797439198" r="3.0601490703222822" fill="#FFD700" opacity="0.9"/>
    <circle cx="137.85534447608345" cy="98.6422082192185" r="4.5365025156963945" fill="#FFD700" opacity="0.9"/>
    <circle cx="123.81584195298032" cy="35.47037889506541" r="4.632149470421448" fill="#FFD700" opacity="0.9"/>
  </g>
  <text x="100" y="190" font-family="Arial, sans-serif" font-size="12" fill="#fff" text-anchor="middle" opacity="0.7">Cassiopeia</text>
</svg>