<svg xmlns="http://www.w3.org/2000/svg" viewBox="0 0 200 200" width="200" height="200">
  <rect width="200" height="200" fill="#0a0e27"/>
  <g id="lines">
    <line x1="127.29648093424274" y1="20.506974025031113" x2="63.814170907818806" y2="118.63637881547213" stroke="#6495ED" stroke-width="1.5" opacity="0.6"/>
    <line x1="127.29648093424274" y1="20.506974025031113" x2="142.75390539992785" y2="157.8892271107463" stroke="#6495ED" stroke-width="1.5" opacity="0.6"/>
    <line x1="63.814170907818806" y1="118.63637881547213" x2="142.75390539992785" y2="157.8892271107463" stroke="#6495ED" stroke-width="1.5" opacity="0.6"/>
    <line x1="142.75390539992785" y1="157.8892271107463" x2="34.88055113171093" y2="69.25895468412602" stroke="#6495ED" stroke-width="1.5" opacity="0.6"/>
    <line x1="34.88055113171093" y1="69.25895468412602" x2="89.89641902885876" y2="147.99833041654196" stroke="#6495ED" stroke-width="1.5" opacity="0.6"/>
    <line x1="34.88055113171093" y1="69.25895468412602" x2="168.1337169438329" y2="173.94932257342052" stroke="#6495ED" stroke-width="1.5" opacity="0.6"/>
    <line x1="89.89641902885876" y1="147.99833041654196" x2="168.1337169438329" y2="173.94932257342052" stroke="#6495ED" stroke-width="1.5" opacity="0.6"/>
    <line x1="89.89641902885876" y1="147.99833041654196" x2="83.24584010681949" y2="176.6043195657346" stroke="#6495ED" stroke-width="1.5" opacity="0.6"/>
    <line x1="168.1337169438329" y1="173.94932257342052" x2="83.24584010681949" y2="176.6043195657346" stroke="#6495ED" stroke-width="1.5" opacity="0.6"/>
    <line x1="83.24584010681949" y1="176.6043195657346" x2="140.34745797658974" y2="104.91256142322563" stroke="#6495ED" stroke-width="1.5" opacity="0.6"/>
    <line x1="83.24584010681949" y1="176.6043195657346" x2="49.59707903543176" y2="147.69754632140024" stroke="#6495ED" stroke-width="1.5" opacity="0.6"/>
    <line x1="140.34745797658974" y1="104.91256142322563" x2="49.59707903543176" y2="147.69754632140024" stroke="#6495ED" stroke-width="1.5" opacity="0.6"/>
    <line x1="49.59707903543176" y1="147.69754632140024" x2="108.441832326519" y2="50.809533492371415" stroke="#6495ED" stroke-width="1.5" opacity="0.6"/>
  </g>
  <g id="stars">
    <circle cx="127.29648093424274" cy="20.506974025031113" r="2.3932034526022177" fill="#FFD700" opacity="0.9"/>
    <circle cx="63.814170907818806" cy="118.63637881547213" r="4.028888510890811" fill="#FFD700" opacity="0.9"/>
    <circle cx="142.75390539992785" cy="157.8892271107463" r="4.194242467784098" fill="#FFD700" opacity="0.9"/>
    <circle cx="34.88055113171093" cy="69.25895468412602" r="3.4850236731415394" fill="#FFD700" opacity="0.9"/>
    <circle cx="89.89641902885876" cy="147.99833041654196" r="2.4347397768915973" fill="#FFD700" opacity="0.9"/>
    <circle cx="168.1337169438329" cy="173.94932257342052" r="2.223657261972575" fill="#FFD700" opacity="0.9"/>
    <circle cx="83.24584010681949" cy="176.6043195657346" r="4.860634715854299" fill="#FFD700" opacity="0.9"/>
    <circle cx="140.34745797658974" cy="104.91256142322563" r="4.986706158465253" fill="#FFD700" opacity="0.9"/>
    <circle cx="49.59707903543176" cy="147.69754632140024" r="3.15218705128527" fill="#FFD700" opacity="0.9"/>
    <circle cx="108.441832326519" cy="50.809533492371415" r="4.719448923278574" fill="#FFD700" opacity="0.9"/>
  </g>
  <text x="100" y="190" font-family="Arial, sans-serif" font-size="12" fill="#fff" text-anchor="middle" opacity="0.7">Centaurus</text>
</svg>