<svg xmlns="http://www.w3.org/2000/svg" viewBox="0 0 200 200" width="200" height="200">
  <rect width="200" height="200" fill="#0a0e27"/>
  <g id="lines">
    <line x1="155.50862235792547" y1="179.00209065462923" x2="166.8528012164631" y2="111.26484458154835" stroke="#6495ED" stroke-width="1.5" opacity="0.6"/>
    <line x1="155.50862235792547" y1="179.00209065462923" x2="95.89652330940339" y2="76.9407735181823" stroke="#6495ED" stroke-width="1.5" opacity="0.6"/>
    <line x1="166.8528012164631" y1="111.26484458154835" x2="95.89652330940339" y2="76.9407735181823" stroke="#6495ED" stroke-width="1.5" opacity="0.6"/>
    <line x1="95.89652330940339" y1="76.9407735181823" x2="48.735070050511595" y2="106.31576393615458" stroke="#6495ED" stroke-width="1.5" opacity="0.6"/>
    <line x1="48.735070050511595" y1="106.31576393615458" x2="40.062558087365545" y2="24.030520024002158" stroke="#6495ED" stroke-width="1.5" opacity="0.6"/>
    <line x1="48.735070050511595" y1="106.31576393615458" x2="94.35803466555036" y2="176.18334715862022" stroke="#6495ED" stroke-width="1.5" opacity="0.6"/>
    <line x1="40.062558087365545" y1="24.030520024002158" x2="94.35803466555036" y2="176.18334715862022" stroke="#6495ED" stroke-width="1.5" opacity="0.6"/>
    <line x1="40.062558087365545" y1="24.030520024002158" x2="116.7752277650419" y2="117.97602494172907" stroke="#6495ED" stroke-width="1.5" opacity="0.6"/>
    <line x1="94.35803466555036" y1="176.18334715862022" x2="116.7752277650419" y2="117.97602494172907" stroke="#6495ED" stroke-width="1.5" opacity="0.6"/>
    <line x1="116.7752277650419" y1="117.97602494172907" x2="94.17857176574915" y2="123.98944336886726" stroke="#6495ED" stroke-width="1.5" opacity="0.6"/>
    <line x1="94.17857176574915" y1="123.98944336886726" x2="89.84367842615373" y2="64.40358863790723" stroke="#6495ED" stroke-width="1.5" opacity="0.6"/>
    <line x1="89.84367842615373" y1="64.40358863790723" x2="175.41113257036056" y2="144.9192368350375" stroke="#6495ED" stroke-width="1.5" opacity="0.6"/>
    <line x1="175.41113257036056" y1="144.9192368350375" x2="168.5131468757801" y2="78.94719203009967" stroke="#6495ED" stroke-width="1.5" opacity="0.6"/>
    <line x1="175.41113257036056" y1="144.9192368350375" x2="157.59349533727786" y2="178.9706892631865" stroke="#6495ED" stroke-width="1.5" opacity="0.6"/>
    <line x1="168.5131468757801" y1="78.94719203009967" x2="157.59349533727786" y2="178.9706892631865" stroke="#6495ED" stroke-width="1.5" opacity="0.6"/>
  </g>
  <g id="stars">
    <circle cx="155.50862235792547" cy="179.00209065462923" r="2.567317994593073" fill="#FFD700" opacity="0.9"/>
    <circle cx="166.8528012164631" cy="111.26484458154835" r="2.928824740971711" fill="#FFD700" opacity="0.9"/>
    <circle cx="95.89652330940339" cy="76.9407735181823" r="2.884729651327925" fill="#FFD700" opacity="0.9"/>
    <circle cx="48.735070050511595" cy="106.31576393615458" r="3.3409034612949533" fill="#FFD700" opacity="0.9"/>
    <circle cx="40.062558087365545" cy="24.030520024002158" r="4.902273471130475" fill="#FFD700" opacity="0.9"/>
    <circle cx="94.35803466555036" cy="176.18334715862022" r="3.2718880971651503" fill="#FFD700" opacity="0.9"/>
    <circle cx="116.7752277650419" cy="117.97602494172907" r="3.250393780857604" fill="#FFD700" opacity="0.9"/>
    <circle cx="94.17857176574915" cy="123.98944336886726" r="4.889032417381154" fill="#FFD700" opacity="0.9"/>
    <circle cx="89.84367842615373" cy="64.40358863790723" r="3.6911877592474758" fill="#FFD700" opacity="0.9"/>
    <circle cx="175.41113257036056" cy="144.9192368350375" r="2.6730234708138276" fill="#FFD700" opacity="0.9"/>
    <circle cx="168.5131468757801" cy="78.94719203009967" r="3.070535388653249" fill="#FFD700" opacity="0.9"/>
    <circle cx="157.59349533727786" cy="178.9706892631865" r="2.0089611300499257" fill="#FFD700" opacity="0.9"/>
  </g>
  <text x="100" y="190" font-family="Arial, sans-serif" font-size="12" fill="#fff" text-anchor="middle" opacity="0.7">Corona Borealis</text>
</svg>