<svg xmlns="http://www.w3.org/2000/svg" viewBox="0 0 200 200" width="200" height="200">
  <rect width="200" height="200" fill="#0a0e27"/>
  <g id="lines">
    <line x1="44.93054110982733" y1="50.35491587862271" x2="107.29839688643708" y2="68.16389659843225" stroke="#6495ED" stroke-width="1.5" opacity="0.6"/>
    <line x1="44.93054110982733" y1="50.35491587862271" x2="99.89306826963677" y2="86.39466447073922" stroke="#6495ED" stroke-width="1.5" opacity="0.6"/>
    <line x1="107.29839688643708" y1="68.16389659843225" x2="99.89306826963677" y2="86.39466447073922" stroke="#6495ED" stroke-width="1.5" opacity="0.6"/>
    <line x1="99.89306826963677" y1="86.39466447073922" x2="54.79850902961118" y2="108.15774849132431" stroke="#6495ED" stroke-width="1.5" opacity="0.6"/>
    <line x1="54.79850902961118" y1="108.15774849132431" x2="71.77499872516442" y2="159.41229578988458" stroke="#6495ED" stroke-width="1.5" opacity="0.6"/>
    <line x1="71.77499872516442" y1="159.41229578988458" x2="133.83733804683945" y2="128.8275997699739" stroke="#6495ED" stroke-width="1.5" opacity="0.6"/>
    <line x1="71.77499872516442" y1="159.41229578988458" x2="166.26469045880103" y2="94.82198929742549" stroke="#6495ED" stroke-width="1.5" opacity="0.6"/>
    <line x1="133.83733804683945" y1="128.8275997699739" x2="166.26469045880103" y2="94.82198929742549" stroke="#6495ED" stroke-width="1.5" opacity="0.6"/>
    <line x1="166.26469045880103" y1="94.82198929742549" x2="118.23571050662397" y2="35.61965972608441" stroke="#6495ED" stroke-width="1.5" opacity="0.6"/>
    <line x1="166.26469045880103" y1="94.82198929742549" x2="20.11154426814727" y2="38.69388854310259" stroke="#6495ED" stroke-width="1.5" opacity="0.6"/>
    <line x1="118.23571050662397" y1="35.61965972608441" x2="20.11154426814727" y2="38.69388854310259" stroke="#6495ED" stroke-width="1.5" opacity="0.6"/>
    <line x1="118.23571050662397" y1="35.61965972608441" x2="91.95819275186075" y2="26.1724023706601" stroke="#6495ED" stroke-width="1.5" opacity="0.6"/>
    <line x1="20.11154426814727" y1="38.69388854310259" x2="91.95819275186075" y2="26.1724023706601" stroke="#6495ED" stroke-width="1.5" opacity="0.6"/>
    <line x1="20.11154426814727" y1="38.69388854310259" x2="113.53814116735873" y2="85.45978782636475" stroke="#6495ED" stroke-width="1.5" opacity="0.6"/>
    <line x1="91.95819275186075" y1="26.1724023706601" x2="113.53814116735873" y2="85.45978782636475" stroke="#6495ED" stroke-width="1.5" opacity="0.6"/>
  </g>
  <g id="stars">
    <circle cx="44.93054110982733" cy="50.35491587862271" r="3.6397121948476094" fill="#FFD700" opacity="0.9"/>
    <circle cx="107.29839688643708" cy="68.16389659843225" r="3.5032784737131633" fill="#FFD700" opacity="0.9"/>
    <circle cx="99.89306826963677" cy="86.39466447073922" r="2.895720249275898" fill="#FFD700" opacity="0.9"/>
    <circle cx="54.79850902961118" cy="108.15774849132431" r="4.464154866847915" fill="#FFD700" opacity="0.9"/>
    <circle cx="71.77499872516442" cy="159.41229578988458" r="3.292323668890554" fill="#FFD700" opacity="0.9"/>
    <circle cx="133.83733804683945" cy="128.8275997699739" r="3.3136767411799752" fill="#FFD700" opacity="0.9"/>
    <circle cx="166.26469045880103" cy="94.82198929742549" r="3.5218835974157274" fill="#FFD700" opacity="0.9"/>
    <circle cx="118.23571050662397" cy="35.61965972608441" r="2.6680859580934557" fill="#FFD700" opacity="0.9"/>
    <circle cx="20.11154426814727" cy="38.69388854310259" r="4.589739592591359" fill="#FFD700" opacity="0.9"/>
    <circle cx="91.95819275186075" cy="26.1724023706601" r="4.656152461305633" fill="#FFD700" opacity="0.9"/>
    <circle cx="113.53814116735873" cy="85.45978782636475" r="3.3250944186340368" fill="#FFD700" opacity="0.9"/>
  </g>
  <text x="100" y="190" font-family="Arial, sans-serif" font-size="12" fill="#fff" text-anchor="middle" opacity="0.7">Crater</text>
</svg>