<svg xmlns="http://www.w3.org/2000/svg" viewBox="0 0 200 200" width="200" height="200">
  <rect width="200" height="200" fill="#0a0e27"/>
  <g id="lines">
    <line x1="116.45348713717215" y1="87.38276640091914" x2="37.79257684029755" y2="75.07561145035157" stroke="#6495ED" stroke-width="1.5" opacity="0.6"/>
    <line x1="37.79257684029755" y1="75.07561145035157" x2="172.88214976950286" y2="170.6535350126413" stroke="#6495ED" stroke-width="1.5" opacity="0.6"/>
    <line x1="172.88214976950286" y1="170.6535350126413" x2="35.11748369763662" y2="151.42272265225944" stroke="#6495ED" stroke-width="1.5" opacity="0.6"/>
    <line x1="172.88214976950286" y1="170.6535350126413" x2="50.4029226229007" y2="97.97289024164303" stroke="#6495ED" stroke-width="1.5" opacity="0.6"/>
    <line x1="35.11748369763662" y1="151.42272265225944" x2="50.4029226229007" y2="97.97289024164303" stroke="#6495ED" stroke-width="1.5" opacity="0.6"/>
    <line x1="35.11748369763662" y1="151.42272265225944" x2="89.40110770297335" y2="96.78405386959471" stroke="#6495ED" stroke-width="1.5" opacity="0.6"/>
    <line x1="50.4029226229007" y1="97.97289024164303" x2="89.40110770297335" y2="96.78405386959471" stroke="#6495ED" stroke-width="1.5" opacity="0.6"/>
    <line x1="50.4029226229007" y1="97.97289024164303" x2="49.710668088785646" y2="146.46656247344674" stroke="#6495ED" stroke-width="1.5" opacity="0.6"/>
    <line x1="89.40110770297335" y1="96.78405386959471" x2="49.710668088785646" y2="146.46656247344674" stroke="#6495ED" stroke-width="1.5" opacity="0.6"/>
    <line x1="89.40110770297335" y1="96.78405386959471" x2="76.42257912448848" y2="104.3597282043715" stroke="#6495ED" stroke-width="1.5" opacity="0.6"/>
    <line x1="49.710668088785646" y1="146.46656247344674" x2="76.42257912448848" y2="104.3597282043715" stroke="#6495ED" stroke-width="1.5" opacity="0.6"/>
  </g>
  <g id="stars">
    <circle cx="116.45348713717215" cy="87.38276640091914" r="4.403825844736616" fill="#FFD700" opacity="0.9"/>
    <circle cx="37.79257684029755" cy="75.07561145035157" r="2.139324418559785" fill="#FFD700" opacity="0.9"/>
    <circle cx="172.88214976950286" cy="170.6535350126413" r="3.2922076301083814" fill="#FFD700" opacity="0.9"/>
    <circle cx="35.11748369763662" cy="151.42272265225944" r="3.090094658712098" fill="#FFD700" opacity="0.9"/>
    <circle cx="50.4029226229007" cy="97.97289024164303" r="4.535783855285921" fill="#FFD700" opacity="0.9"/>
    <circle cx="89.40110770297335" cy="96.78405386959471" r="4.923892828148889" fill="#FFD700" opacity="0.9"/>
    <circle cx="49.710668088785646" cy="146.46656247344674" r="3.66198590026997" fill="#FFD700" opacity="0.9"/>
    <circle cx="76.42257912448848" cy="104.3597282043715" r="4.964622781053364" fill="#FFD700" opacity="0.9"/>
  </g>
  <text x="100" y="190" font-family="Arial, sans-serif" font-size="12" fill="#fff" text-anchor="middle" opacity="0.7">Draco</text>
</svg>