<svg xmlns="http://www.w3.org/2000/svg" viewBox="0 0 200 200" width="200" height="200">
  <rect width="200" height="200" fill="#0a0e27"/>
  <g id="lines">
    <line x1="34.42429491898377" y1="145.46776776641224" x2="58.66231212794336" y2="34.61794842549164" stroke="#6495ED" stroke-width="1.5" opacity="0.6"/>
    <line x1="58.66231212794336" y1="34.61794842549164" x2="172.65477264029295" y2="146.4003627307365" stroke="#6495ED" stroke-width="1.5" opacity="0.6"/>
    <line x1="58.66231212794336" y1="34.61794842549164" x2="113.87852732532906" y2="177.16361476244262" stroke="#6495ED" stroke-width="1.5" opacity="0.6"/>
    <line x1="172.65477264029295" y1="146.4003627307365" x2="113.87852732532906" y2="177.16361476244262" stroke="#6495ED" stroke-width="1.5" opacity="0.6"/>
    <line x1="172.65477264029295" y1="146.4003627307365" x2="132.71571021311007" y2="137.15689044386318" stroke="#6495ED" stroke-width="1.5" opacity="0.6"/>
    <line x1="113.87852732532906" y1="177.16361476244262" x2="132.71571021311007" y2="137.15689044386318" stroke="#6495ED" stroke-width="1.5" opacity="0.6"/>
    <line x1="113.87852732532906" y1="177.16361476244262" x2="102.92249540816886" y2="59.47415182231406" stroke="#6495ED" stroke-width="1.5" opacity="0.6"/>
    <line x1="132.71571021311007" y1="137.15689044386318" x2="102.92249540816886" y2="59.47415182231406" stroke="#6495ED" stroke-width="1.5" opacity="0.6"/>
    <line x1="102.92249540816886" y1="59.47415182231406" x2="55.50596429992904" y2="149.50786426608573" stroke="#6495ED" stroke-width="1.5" opacity="0.6"/>
  </g>
  <g id="stars">
    <circle cx="34.42429491898377" cy="145.46776776641224" r="2.9864830535686977" fill="#FFD700" opacity="0.9"/>
    <circle cx="58.66231212794336" cy="34.61794842549164" r="3.223621342567136" fill="#FFD700" opacity="0.9"/>
    <circle cx="172.65477264029295" cy="146.4003627307365" r="4.490513652357322" fill="#FFD700" opacity="0.9"/>
    <circle cx="113.87852732532906" cy="177.16361476244262" r="2.40240048488456" fill="#FFD700" opacity="0.9"/>
    <circle cx="132.71571021311007" cy="137.15689044386318" r="4.469677519404879" fill="#FFD700" opacity="0.9"/>
    <circle cx="102.92249540816886" cy="59.47415182231406" r="2.3518992590393752" fill="#FFD700" opacity="0.9"/>
    <circle cx="55.50596429992904" cy="149.50786426608573" r="4.395654046323834" fill="#FFD700" opacity="0.9"/>
  </g>
  <text x="100" y="190" font-family="Arial, sans-serif" font-size="12" fill="#fff" text-anchor="middle" opacity="0.7">Hercules</text>
</svg>