<svg xmlns="http://www.w3.org/2000/svg" viewBox="0 0 200 200" width="200" height="200">
  <rect width="200" height="200" fill="#0a0e27"/>
  <g id="lines">
    <line x1="143.00923937053992" y1="34.14051570362986" x2="80.13215703334382" y2="69.21223741445125" stroke="#6495ED" stroke-width="1.5" opacity="0.6"/>
    <line x1="143.00923937053992" y1="34.14051570362986" x2="132.6303058449697" y2="178.59209928207238" stroke="#6495ED" stroke-width="1.5" opacity="0.6"/>
    <line x1="80.13215703334382" y1="69.21223741445125" x2="132.6303058449697" y2="178.59209928207238" stroke="#6495ED" stroke-width="1.5" opacity="0.6"/>
    <line x1="80.13215703334382" y1="69.21223741445125" x2="63.80441365452242" y2="157.78882909451465" stroke="#6495ED" stroke-width="1.5" opacity="0.6"/>
    <line x1="132.6303058449697" y1="178.59209928207238" x2="63.80441365452242" y2="157.78882909451465" stroke="#6495ED" stroke-width="1.5" opacity="0.6"/>
    <line x1="63.80441365452242" y1="157.78882909451465" x2="159.9100691025331" y2="71.21674927726974" stroke="#6495ED" stroke-width="1.5" opacity="0.6"/>
    <line x1="63.80441365452242" y1="157.78882909451465" x2="169.92525289342038" y2="27.753434536455757" stroke="#6495ED" stroke-width="1.5" opacity="0.6"/>
    <line x1="159.9100691025331" y1="71.21674927726974" x2="169.92525289342038" y2="27.753434536455757" stroke="#6495ED" stroke-width="1.5" opacity="0.6"/>
    <line x1="169.92525289342038" y1="27.753434536455757" x2="112.0404481412951" y2="24.356064033755906" stroke="#6495ED" stroke-width="1.5" opacity="0.6"/>
    <line x1="169.92525289342038" y1="27.753434536455757" x2="21.050978128984532" y2="43.83326809390809" stroke="#6495ED" stroke-width="1.5" opacity="0.6"/>
    <line x1="112.0404481412951" y1="24.356064033755906" x2="21.050978128984532" y2="43.83326809390809" stroke="#6495ED" stroke-width="1.5" opacity="0.6"/>
    <line x1="21.050978128984532" y1="43.83326809390809" x2="121.47322220289854" y2="155.00087228223697" stroke="#6495ED" stroke-width="1.5" opacity="0.6"/>
  </g>
  <g id="stars">
    <circle cx="143.00923937053992" cy="34.14051570362986" r="3.9104031714946816" fill="#FFD700" opacity="0.9"/>
    <circle cx="80.13215703334382" cy="69.21223741445125" r="2.7262953791430196" fill="#FFD700" opacity="0.9"/>
    <circle cx="132.6303058449697" cy="178.59209928207238" r="3.2669121552074176" fill="#FFD700" opacity="0.9"/>
    <circle cx="63.80441365452242" cy="157.78882909451465" r="2.6849799335526203" fill="#FFD700" opacity="0.9"/>
    <circle cx="159.9100691025331" cy="71.21674927726974" r="3.9600557667460703" fill="#FFD700" opacity="0.9"/>
    <circle cx="169.92525289342038" cy="27.753434536455757" r="3.8805179353713006" fill="#FFD700" opacity="0.9"/>
    <circle cx="112.0404481412951" cy="24.356064033755906" r="3.534983548260475" fill="#FFD700" opacity="0.9"/>
    <circle cx="21.050978128984532" cy="43.83326809390809" r="4.270963752090344" fill="#FFD700" opacity="0.9"/>
    <circle cx="121.47322220289854" cy="155.00087228223697" r="2.8682962138146983" fill="#FFD700" opacity="0.9"/>
  </g>
  <text x="100" y="190" font-family="Arial, sans-serif" font-size="12" fill="#fff" text-anchor="middle" opacity="0.7">Hydra</text>
</svg>