<svg xmlns="http://www.w3.org/2000/svg" viewBox="0 0 200 200" width="200" height="200">
  <rect width="200" height="200" fill="#0a0e27"/>
  <g id="lines">
    <line x1="128.0683028380265" y1="106.8094992015643" x2="154.25122286858098" y2="153.1091855030828" stroke="#6495ED" stroke-width="1.5" opacity="0.6"/>
    <line x1="154.25122286858098" y1="153.1091855030828" x2="42.87540475759272" y2="106.31926266270912" stroke="#6495ED" stroke-width="1.5" opacity="0.6"/>
    <line x1="42.87540475759272" y1="106.31926266270912" x2="27.95982571089155" y2="21.56396065972377" stroke="#6495ED" stroke-width="1.5" opacity="0.6"/>
    <line x1="42.87540475759272" y1="106.31926266270912" x2="105.64234930042576" y2="117.17828777698656" stroke="#6495ED" stroke-width="1.5" opacity="0.6"/>
    <line x1="27.95982571089155" y1="21.56396065972377" x2="105.64234930042576" y2="117.17828777698656" stroke="#6495ED" stroke-width="1.5" opacity="0.6"/>
    <line x1="27.95982571089155" y1="21.56396065972377" x2="30.145709414337354" y2="65.71982480522905" stroke="#6495ED" stroke-width="1.5" opacity="0.6"/>
    <line x1="105.64234930042576" y1="117.17828777698656" x2="30.145709414337354" y2="65.71982480522905" stroke="#6495ED" stroke-width="1.5" opacity="0.6"/>
    <line x1="105.64234930042576" y1="117.17828777698656" x2="137.4844749765212" y2="150.81307550954716" stroke="#6495ED" stroke-width="1.5" opacity="0.6"/>
    <line x1="30.145709414337354" y1="65.71982480522905" x2="137.4844749765212" y2="150.81307550954716" stroke="#6495ED" stroke-width="1.5" opacity="0.6"/>
    <line x1="137.4844749765212" y1="150.81307550954716" x2="83.79244032210131" y2="24.01525136015458" stroke="#6495ED" stroke-width="1.5" opacity="0.6"/>
    <line x1="83.79244032210131" y1="24.01525136015458" x2="109.12915811072715" y2="147.43589427705018" stroke="#6495ED" stroke-width="1.5" opacity="0.6"/>
    <line x1="109.12915811072715" y1="147.43589427705018" x2="164.73406272183436" y2="93.1565192844564" stroke="#6495ED" stroke-width="1.5" opacity="0.6"/>
    <line x1="109.12915811072715" y1="147.43589427705018" x2="118.9401927036458" y2="94.98789919255934" stroke="#6495ED" stroke-width="1.5" opacity="0.6"/>
    <line x1="164.73406272183436" y1="93.1565192844564" x2="118.9401927036458" y2="94.98789919255934" stroke="#6495ED" stroke-width="1.5" opacity="0.6"/>
    <line x1="118.9401927036458" y1="94.98789919255934" x2="139.3231249610593" y2="131.94386526132814" stroke="#6495ED" stroke-width="1.5" opacity="0.6"/>
  </g>
  <g id="stars">
    <circle cx="128.0683028380265" cy="106.8094992015643" r="4.61761104128211" fill="#FFD700" opacity="0.9"/>
    <circle cx="154.25122286858098" cy="153.1091855030828" r="4.873891460297254" fill="#FFD700" opacity="0.9"/>
    <circle cx="42.87540475759272" cy="106.31926266270912" r="3.811648799269499" fill="#FFD700" opacity="0.9"/>
    <circle cx="27.95982571089155" cy="21.56396065972377" r="2.2091898171624718" fill="#FFD700" opacity="0.9"/>
    <circle cx="105.64234930042576" cy="117.17828777698656" r="4.5063826250039005" fill="#FFD700" opacity="0.9"/>
    <circle cx="30.145709414337354" cy="65.71982480522905" r="4.911681877572771" fill="#FFD700" opacity="0.9"/>
    <circle cx="137.4844749765212" cy="150.81307550954716" r="4.050782956702658" fill="#FFD700" opacity="0.9"/>
    <circle cx="83.79244032210131" cy="24.01525136015458" r="2.8314676823408114" fill="#FFD700" opacity="0.9"/>
    <circle cx="109.12915811072715" cy="147.43589427705018" r="2.2601579399375358" fill="#FFD700" opacity="0.9"/>
    <circle cx="164.73406272183436" cy="93.1565192844564" r="3.406279653247622" fill="#FFD700" opacity="0.9"/>
    <circle cx="118.9401927036458" cy="94.98789919255934" r="3.594613807706665" fill="#FFD700" opacity="0.9"/>
    <circle cx="139.3231249610593" cy="131.94386526132814" r="3.249075557166426" fill="#FFD700" opacity="0.9"/>
  </g>
  <text x="100" y="190" font-family="Arial, sans-serif" font-size="12" fill="#fff" text-anchor="middle" opacity="0.7">Lyra</text>
</svg>