<svg xmlns="http://www.w3.org/2000/svg" viewBox="0 0 200 200" width="200" height="200">
  <rect width="200" height="200" fill="#0a0e27"/>
  <g id="lines">
    <line x1="38.96364058108716" y1="37.2461772421855" x2="179.9503676351539" y2="24.67198918026206" stroke="#6495ED" stroke-width="1.5" opacity="0.6"/>
    <line x1="179.9503676351539" y1="24.67198918026206" x2="149.68461702118802" y2="23.811623468289937" stroke="#6495ED" stroke-width="1.5" opacity="0.6"/>
    <line x1="149.68461702118802" y1="23.811623468289937" x2="105.85012185514266" y2="61.23152922992816" stroke="#6495ED" stroke-width="1.5" opacity="0.6"/>
    <line x1="105.85012185514266" y1="61.23152922992816" x2="111.54101738978227" y2="41.84594767321858" stroke="#6495ED" stroke-width="1.5" opacity="0.6"/>
    <line x1="105.85012185514266" y1="61.23152922992816" x2="50.66805207781268" y2="114.32908290469022" stroke="#6495ED" stroke-width="1.5" opacity="0.6"/>
    <line x1="111.54101738978227" y1="41.84594767321858" x2="50.66805207781268" y2="114.32908290469022" stroke="#6495ED" stroke-width="1.5" opacity="0.6"/>
    <line x1="111.54101738978227" y1="41.84594767321858" x2="69.7588536549236" y2="78.62402377017325" stroke="#6495ED" stroke-width="1.5" opacity="0.6"/>
    <line x1="50.66805207781268" y1="114.32908290469022" x2="69.7588536549236" y2="78.62402377017325" stroke="#6495ED" stroke-width="1.5" opacity="0.6"/>
    <line x1="69.7588536549236" y1="78.62402377017325" x2="173.7717104868565" y2="124.07531220054608" stroke="#6495ED" stroke-width="1.5" opacity="0.6"/>
  </g>
  <g id="stars">
    <circle cx="38.96364058108716" cy="37.2461772421855" r="2.5844426882440157" fill="#FFD700" opacity="0.9"/>
    <circle cx="179.9503676351539" cy="24.67198918026206" r="2.203213779866295" fill="#FFD700" opacity="0.9"/>
    <circle cx="149.68461702118802" cy="23.811623468289937" r="2.950752113401723" fill="#FFD700" opacity="0.9"/>
    <circle cx="105.85012185514266" cy="61.23152922992816" r="3.15750503500478" fill="#FFD700" opacity="0.9"/>
    <circle cx="111.54101738978227" cy="41.84594767321858" r="2.6658310410398283" fill="#FFD700" opacity="0.9"/>
    <circle cx="50.66805207781268" cy="114.32908290469022" r="2.445091310000429" fill="#FFD700" opacity="0.9"/>
    <circle cx="69.7588536549236" cy="78.62402377017325" r="4.753725280068636" fill="#FFD700" opacity="0.9"/>
    <circle cx="173.7717104868565" cy="124.07531220054608" r="2.527583893669374" fill="#FFD700" opacity="0.9"/>
  </g>
  <text x="100" y="190" font-family="Arial, sans-serif" font-size="12" fill="#fff" text-anchor="middle" opacity="0.7">Ophiuchus</text>
</svg>