<svg xmlns="http://www.w3.org/2000/svg" viewBox="0 0 200 200" width="200" height="200">
  <rect width="200" height="200" fill="#0a0e27"/>
  <g id="lines">
    <line x1="38.89203813226782" y1="161.59025418920123" x2="88.28242869605269" y2="23.22031346058786" stroke="#6495ED" stroke-width="1.5" opacity="0.6"/>
    <line x1="38.89203813226782" y1="161.59025418920123" x2="91.35650995020484" y2="110.03524105620933" stroke="#6495ED" stroke-width="1.5" opacity="0.6"/>
    <line x1="88.28242869605269" y1="23.22031346058786" x2="91.35650995020484" y2="110.03524105620933" stroke="#6495ED" stroke-width="1.5" opacity="0.6"/>
    <line x1="91.35650995020484" y1="110.03524105620933" x2="70.94873457425595" y2="57.71455166827874" stroke="#6495ED" stroke-width="1.5" opacity="0.6"/>
    <line x1="91.35650995020484" y1="110.03524105620933" x2="157.4478526842392" y2="23.4946777914908" stroke="#6495ED" stroke-width="1.5" opacity="0.6"/>
    <line x1="70.94873457425595" y1="57.71455166827874" x2="157.4478526842392" y2="23.4946777914908" stroke="#6495ED" stroke-width="1.5" opacity="0.6"/>
    <line x1="70.94873457425595" y1="57.71455166827874" x2="131.24596431305622" y2="56.25866580565617" stroke="#6495ED" stroke-width="1.5" opacity="0.6"/>
    <line x1="157.4478526842392" y1="23.4946777914908" x2="131.24596431305622" y2="56.25866580565617" stroke="#6495ED" stroke-width="1.5" opacity="0.6"/>
    <line x1="131.24596431305622" y1="56.25866580565617" x2="93.00650884235004" y2="147.99343707617876" stroke="#6495ED" stroke-width="1.5" opacity="0.6"/>
    <line x1="131.24596431305622" y1="56.25866580565617" x2="100.64229846517935" y2="85.22753391612812" stroke="#6495ED" stroke-width="1.5" opacity="0.6"/>
    <line x1="93.00650884235004" y1="147.99343707617876" x2="100.64229846517935" y2="85.22753391612812" stroke="#6495ED" stroke-width="1.5" opacity="0.6"/>
    <line x1="93.00650884235004" y1="147.99343707617876" x2="23.373410993950472" y2="135.39022826856888" stroke="#6495ED" stroke-width="1.5" opacity="0.6"/>
    <line x1="100.64229846517935" y1="85.22753391612812" x2="23.373410993950472" y2="135.39022826856888" stroke="#6495ED" stroke-width="1.5" opacity="0.6"/>
    <line x1="100.64229846517935" y1="85.22753391612812" x2="140.98761469184993" y2="48.14441454424035" stroke="#6495ED" stroke-width="1.5" opacity="0.6"/>
    <line x1="23.373410993950472" y1="135.39022826856888" x2="140.98761469184993" y2="48.14441454424035" stroke="#6495ED" stroke-width="1.5" opacity="0.6"/>
    <line x1="140.98761469184993" y1="48.14441454424035" x2="80.99120372871525" y2="102.63983175169204" stroke="#6495ED" stroke-width="1.5" opacity="0.6"/>
    <line x1="80.99120372871525" y1="102.63983175169204" x2="93.2731037870683" y2="121.47979267126868" stroke="#6495ED" stroke-width="1.5" opacity="0.6"/>
  </g>
  <g id="stars">
    <circle cx="38.89203813226782" cy="161.59025418920123" r="2.7966792871595674" fill="#FFD700" opacity="0.9"/>
    <circle cx="88.28242869605269" cy="23.22031346058786" r="2.836003846293642" fill="#FFD700" opacity="0.9"/>
    <circle cx="91.35650995020484" cy="110.03524105620933" r="4.278469011582253" fill="#FFD700" opacity="0.9"/>
    <circle cx="70.94873457425595" cy="57.71455166827874" r="2.34195820380495" fill="#FFD700" opacity="0.9"/>
    <circle cx="157.4478526842392" cy="23.4946777914908" r="4.59590340216043" fill="#FFD700" opacity="0.9"/>
    <circle cx="131.24596431305622" cy="56.25866580565617" r="4.72273232555436" fill="#FFD700" opacity="0.9"/>
    <circle cx="93.00650884235004" cy="147.99343707617876" r="4.224958189554481" fill="#FFD700" opacity="0.9"/>
    <circle cx="100.64229846517935" cy="85.22753391612812" r="3.673721815743104" fill="#FFD700" opacity="0.9"/>
    <circle cx="23.373410993950472" cy="135.39022826856888" r="2.152756342128869" fill="#FFD700" opacity="0.9"/>
    <circle cx="140.98761469184993" cy="48.14441454424035" r="4.480563848161575" fill="#FFD700" opacity="0.9"/>
    <circle cx="80.99120372871525" cy="102.63983175169204" r="2.2624291010874256" fill="#FFD700" opacity="0.9"/>
    <circle cx="93.2731037870683" cy="121.47979267126868" r="4.545373817445632" fill="#FFD700" opacity="0.9"/>
  </g>
  <text x="100" y="190" font-family="Arial, sans-serif" font-size="12" fill="#fff" text-anchor="middle" opacity="0.7">Pegasus</text>
</svg>