<svg xmlns="http://www.w3.org/2000/svg" viewBox="0 0 200 200" width="200" height="200">
  <rect width="200" height="200" fill="#0a0e27"/>
  <g id="lines">
    <line x1="96.13154787665553" y1="102.29787024730558" x2="39.64857323354021" y2="33.743067651729355" stroke="#6495ED" stroke-width="1.5" opacity="0.6"/>
    <line x1="39.64857323354021" y1="33.743067651729355" x2="148.4984140508108" y2="107.69161695609945" stroke="#6495ED" stroke-width="1.5" opacity="0.6"/>
    <line x1="148.4984140508108" y1="107.69161695609945" x2="128.50262683420004" y2="44.34799545706294" stroke="#6495ED" stroke-width="1.5" opacity="0.6"/>
    <line x1="128.50262683420004" y1="44.34799545706294" x2="142.15580005095515" y2="35.921482886632035" stroke="#6495ED" stroke-width="1.5" opacity="0.6"/>
    <line x1="142.15580005095515" y1="35.921482886632035" x2="114.58654546820839" y2="83.78428312053465" stroke="#6495ED" stroke-width="1.5" opacity="0.6"/>
    <line x1="142.15580005095515" y1="35.921482886632035" x2="102.80575042790424" y2="29.77762769334724" stroke="#6495ED" stroke-width="1.5" opacity="0.6"/>
    <line x1="114.58654546820839" y1="83.78428312053465" x2="102.80575042790424" y2="29.77762769334724" stroke="#6495ED" stroke-width="1.5" opacity="0.6"/>
    <line x1="102.80575042790424" y1="29.77762769334724" x2="39.68495514295906" y2="78.26163776767842" stroke="#6495ED" stroke-width="1.5" opacity="0.6"/>
  </g>
  <g id="stars">
    <circle cx="96.13154787665553" cy="102.29787024730558" r="3.5127199228878183" fill="#FFD700" opacity="0.9"/>
    <circle cx="39.64857323354021" cy="33.743067651729355" r="3.4872310595465414" fill="#FFD700" opacity="0.9"/>
    <circle cx="148.4984140508108" cy="107.69161695609945" r="3.9251093495115055" fill="#FFD700" opacity="0.9"/>
    <circle cx="128.50262683420004" cy="44.34799545706294" r="4.718561324177987" fill="#FFD700" opacity="0.9"/>
    <circle cx="142.15580005095515" cy="35.921482886632035" r="3.8410157958179227" fill="#FFD700" opacity="0.9"/>
    <circle cx="114.58654546820839" cy="83.78428312053465" r="4.281756354394549" fill="#FFD700" opacity="0.9"/>
    <circle cx="102.80575042790424" cy="29.77762769334724" r="3.5393476605059497" fill="#FFD700" opacity="0.9"/>
    <circle cx="39.68495514295906" cy="78.26163776767842" r="3.5370869953934103" fill="#FFD700" opacity="0.9"/>
  </g>
  <text x="100" y="190" font-family="Arial, sans-serif" font-size="12" fill="#fff" text-anchor="middle" opacity="0.7">Perseus</text>
</svg>