<svg xmlns="http://www.w3.org/2000/svg" viewBox="0 0 200 200" width="200" height="200">
  <rect width="200" height="200" fill="#0a0e27"/>
  <g id="lines">
    <line x1="161.9499661872258" y1="34.47343175468955" x2="45.927727898807476" y2="129.25010807562856" stroke="#6495ED" stroke-width="1.5" opacity="0.6"/>
    <line x1="45.927727898807476" y1="129.25010807562856" x2="74.24066530401959" y2="54.786861492077996" stroke="#6495ED" stroke-width="1.5" opacity="0.6"/>
    <line x1="45.927727898807476" y1="129.25010807562856" x2="130.9223857185003" y2="26.03293757996955" stroke="#6495ED" stroke-width="1.5" opacity="0.6"/>
    <line x1="74.24066530401959" y1="54.786861492077996" x2="130.9223857185003" y2="26.03293757996955" stroke="#6495ED" stroke-width="1.5" opacity="0.6"/>
    <line x1="74.24066530401959" y1="54.786861492077996" x2="34.54405959736995" y2="20.879909940446595" stroke="#6495ED" stroke-width="1.5" opacity="0.6"/>
    <line x1="130.9223857185003" y1="26.03293757996955" x2="34.54405959736995" y2="20.879909940446595" stroke="#6495ED" stroke-width="1.5" opacity="0.6"/>
    <line x1="130.9223857185003" y1="26.03293757996955" x2="49.90864485877491" y2="155.63754114372585" stroke="#6495ED" stroke-width="1.5" opacity="0.6"/>
    <line x1="34.54405959736995" y1="20.879909940446595" x2="49.90864485877491" y2="155.63754114372585" stroke="#6495ED" stroke-width="1.5" opacity="0.6"/>
    <line x1="49.90864485877491" y1="155.63754114372585" x2="161.65836533715793" y2="47.46648611069709" stroke="#6495ED" stroke-width="1.5" opacity="0.6"/>
  </g>
  <g id="stars">
    <circle cx="161.9499661872258" cy="34.47343175468955" r="3.7724650103548063" fill="#FFD700" opacity="0.9"/>
    <circle cx="45.927727898807476" cy="129.25010807562856" r="2.0732094666901197" fill="#FFD700" opacity="0.9"/>
    <circle cx="74.24066530401959" cy="54.786861492077996" r="2.2503668501584153" fill="#FFD700" opacity="0.9"/>
    <circle cx="130.9223857185003" cy="26.03293757996955" r="3.610001395093614" fill="#FFD700" opacity="0.9"/>
    <circle cx="34.54405959736995" cy="20.879909940446595" r="3.3446408723147654" fill="#FFD700" opacity="0.9"/>
    <circle cx="49.90864485877491" cy="155.63754114372585" r="2.3913106355804086" fill="#FFD700" opacity="0.9"/>
    <circle cx="161.65836533715793" cy="47.46648611069709" r="2.3536581426922734" fill="#FFD700" opacity="0.9"/>
  </g>
  <text x="100" y="190" font-family="Arial, sans-serif" font-size="12" fill="#fff" text-anchor="middle" opacity="0.7">Pisces</text>
</svg>