<svg xmlns="http://www.w3.org/2000/svg" viewBox="0 0 200 200" width="200" height="200">
  <rect width="200" height="200" fill="#0a0e27"/>
  <g id="lines">
    <line x1="137.50070326226225" y1="148.7575566573695" x2="52.79863586964911" y2="100.8614982412517" stroke="#6495ED" stroke-width="1.5" opacity="0.6"/>
    <line x1="52.79863586964911" y1="100.8614982412517" x2="157.97047851554564" y2="74.69394608615656" stroke="#6495ED" stroke-width="1.5" opacity="0.6"/>
    <line x1="52.79863586964911" y1="100.8614982412517" x2="100.34507424514797" y2="106.57123633639529" stroke="#6495ED" stroke-width="1.5" opacity="0.6"/>
    <line x1="157.97047851554564" y1="74.69394608615656" x2="100.34507424514797" y2="106.57123633639529" stroke="#6495ED" stroke-width="1.5" opacity="0.6"/>
    <line x1="157.97047851554564" y1="74.69394608615656" x2="73.07008846945453" y2="125.79407082377465" stroke="#6495ED" stroke-width="1.5" opacity="0.6"/>
    <line x1="100.34507424514797" y1="106.57123633639529" x2="73.07008846945453" y2="125.79407082377465" stroke="#6495ED" stroke-width="1.5" opacity="0.6"/>
    <line x1="100.34507424514797" y1="106.57123633639529" x2="173.67367059045813" y2="40.65539689990203" stroke="#6495ED" stroke-width="1.5" opacity="0.6"/>
    <line x1="73.07008846945453" y1="125.79407082377465" x2="173.67367059045813" y2="40.65539689990203" stroke="#6495ED" stroke-width="1.5" opacity="0.6"/>
    <line x1="173.67367059045813" y1="40.65539689990203" x2="29.23942708691392" y2="72.92689133758148" stroke="#6495ED" stroke-width="1.5" opacity="0.6"/>
  </g>
  <g id="stars">
    <circle cx="137.50070326226225" cy="148.7575566573695" r="4.680093141306883" fill="#FFD700" opacity="0.9"/>
    <circle cx="52.79863586964911" cy="100.8614982412517" r="4.274832772582204" fill="#FFD700" opacity="0.9"/>
    <circle cx="157.97047851554564" cy="74.69394608615656" r="2.035970741276407" fill="#FFD700" opacity="0.9"/>
    <circle cx="100.34507424514797" cy="106.57123633639529" r="4.478678649596727" fill="#FFD700" opacity="0.9"/>
    <circle cx="73.07008846945453" cy="125.79407082377465" r="3.413768954158464" fill="#FFD700" opacity="0.9"/>
    <circle cx="173.67367059045813" cy="40.65539689990203" r="2.71400507912604" fill="#FFD700" opacity="0.9"/>
    <circle cx="29.23942708691392" cy="72.92689133758148" r="3.5999115075105923" fill="#FFD700" opacity="0.9"/>
  </g>
  <text x="100" y="190" font-family="Arial, sans-serif" font-size="12" fill="#fff" text-anchor="middle" opacity="0.7">Taurus</text>
</svg>