<svg xmlns="http://www.w3.org/2000/svg" viewBox="0 0 200 200" width="200" height="200">
  <rect width="200" height="200" fill="#0a0e27"/>
  <g id="lines">
    <line x1="37.92836000865137" y1="63.451674600922594" x2="175.57128430179998" y2="37.87476726059371" stroke="#6495ED" stroke-width="1.5" opacity="0.6"/>
    <line x1="175.57128430179998" y1="37.87476726059371" x2="26.875209784521665" y2="68.63545767227961" stroke="#6495ED" stroke-width="1.5" opacity="0.6"/>
    <line x1="26.875209784521665" y1="68.63545767227961" x2="148.00275071304935" y2="60.69409497704395" stroke="#6495ED" stroke-width="1.5" opacity="0.6"/>
    <line x1="148.00275071304935" y1="60.69409497704395" x2="125.37436499951724" y2="42.371518844928815" stroke="#6495ED" stroke-width="1.5" opacity="0.6"/>
    <line x1="148.00275071304935" y1="60.69409497704395" x2="106.52934853572887" y2="101.33087705768884" stroke="#6495ED" stroke-width="1.5" opacity="0.6"/>
    <line x1="125.37436499951724" y1="42.371518844928815" x2="106.52934853572887" y2="101.33087705768884" stroke="#6495ED" stroke-width="1.5" opacity="0.6"/>
    <line x1="106.52934853572887" y1="101.33087705768884" x2="113.73251332056353" y2="104.4960633532304" stroke="#6495ED" stroke-width="1.5" opacity="0.6"/>
    <line x1="113.73251332056353" y1="104.4960633532304" x2="120.34354216030351" y2="153.73386041094142" stroke="#6495ED" stroke-width="1.5" opacity="0.6"/>
  </g>
  <g id="stars">
    <circle cx="37.92836000865137" cy="63.451674600922594" r="3.470266512170617" fill="#FFD700" opacity="0.9"/>
    <circle cx="175.57128430179998" cy="37.87476726059371" r="4.721304553021183" fill="#FFD700" opacity="0.9"/>
    <circle cx="26.875209784521665" cy="68.63545767227961" r="2.3371273345558325" fill="#FFD700" opacity="0.9"/>
    <circle cx="148.00275071304935" cy="60.69409497704395" r="3.224005662329514" fill="#FFD700" opacity="0.9"/>
    <circle cx="125.37436499951724" cy="42.371518844928815" r="2.763783260943447" fill="#FFD700" opacity="0.9"/>
    <circle cx="106.52934853572887" cy="101.33087705768884" r="2.446563189311456" fill="#FFD700" opacity="0.9"/>
    <circle cx="113.73251332056353" cy="104.4960633532304" r="3.9621391449847208" fill="#FFD700" opacity="0.9"/>
    <circle cx="120.34354216030351" cy="153.73386041094142" r="2.191262028862657" fill="#FFD700" opacity="0.9"/>
  </g>
  <text x="100" y="190" font-family="Arial, sans-serif" font-size="12" fill="#fff" text-anchor="middle" opacity="0.7">Ursa Major</text>
</svg>